  <svg xmlns="http://www.w3.org/2000/svg" viewBox="0 0 1200 630" width="1200" height="630">
    <defs>
      <linearGradient id="sky" x1="0" y1="0" x2="0" y2="1">
        <stop offset="0" stop-color="#3f8bea" />
        <stop offset="1" stop-color="#0b51c4" />
      </linearGradient>
    </defs>
    <rect width="1200" height="630" fill="url(#sky)" />
    <!-- simple lucide clouds (same shape as the logo), top-left & bottom-right -->
    <g fill="#ffffff" opacity="0.85">
      <path transform="translate(54 19) scale(7)"
        d="M6.5 19A4.5 4.5 0 0 1 6 10.03 6 6 0 0 1 17.7 8.5h.3a4 4 0 0 1 .5 7.97V19H6.5Z" />
      <path transform="translate(969 409) scale(7)"
        d="M6.5 19A4.5 4.5 0 0 1 6 10.03 6 6 0 0 1 17.7 8.5h.3a4 4 0 0 1 .5 7.97V19H6.5Z" />
    </g>
    <!-- cloud mark (outline) centred above the text -->
    <path transform="translate(502 150) scale(8)"
      d="M6.5 19A4.5 4.5 0 0 1 6 10.03 6 6 0 0 1 17.7 8.5h.3a4 4 0 0 1 .5 7.97V19H6.5Z"
      fill="none" stroke="#ffffff" stroke-width="1.7" stroke-linejoin="round" />
    <text x="600" y="420" text-anchor="middle" font-family="system-ui, -apple-system, sans-serif"
      font-size="84" font-weight="800" fill="#ffffff">socloudy</text>
    <text x="600" y="480" text-anchor="middle" font-family="system-ui, -apple-system, sans-serif"
      font-size="32" fill="#ffffff" opacity="0.9">A cloudy Bluesky client</text>
  </svg>
