  <svg xmlns="http://www.w3.org/2000/svg" viewBox="0 0 1200 630" width="1200" height="630">
    <defs>
      <linearGradient id="sky" x1="0" y1="0" x2="0" y2="1">
        <stop offset="0" stop-color="#3f8bea" />
        <stop offset="1" stop-color="#0b51c4" />
      </linearGradient>
    </defs>
    <rect width="1200" height="630" fill="url(#sky)" />
    <g fill="#ffffff" opacity="0.85">
      <path transform="translate(80 57.5) scale(5)" d="M17.5 19H9a7 7 0 1 1 6.71-9h1.79a4.5 4.5 0 1 1 0 9Z" />
      <path transform="translate(1000 457.5) scale(5)" d="M17.5 19H9a7 7 0 1 1 6.71-9h1.79a4.5 4.5 0 1 1 0 9Z" />
    </g>
    <path transform="translate(492 147) scale(9)"
      d="M17.5 19H9a7 7 0 1 1 6.71-9h1.79a4.5 4.5 0 1 1 0 9Z"
      fill="none" stroke="#ffffff" stroke-width="8" vector-effect="non-scaling-stroke"
      stroke-linecap="round" stroke-linejoin="round" />
    <text x="600" y="430" text-anchor="middle" font-family="system-ui, -apple-system, sans-serif"
      font-size="84" font-weight="800" fill="#ffffff">socloudy</text>
    <text x="600" y="490" text-anchor="middle" font-family="system-ui, -apple-system, sans-serif"
      font-size="32" fill="#ffffff" opacity="0.9">A cloudy Bluesky client</text>
  </svg>
